<?xml version="1.0" standalone="no"?>
<!DOCTYPE svg PUBLIC "-//W3C//DTD SVG 20010904//EN"
 "http://www.w3.org/TR/2001/REC-SVG-20010904/DTD/svg10.dtd">
<svg version="1.0" xmlns="http://www.w3.org/2000/svg"
 width="512.000000pt" height="512.000000pt" viewBox="0 0 512.000000 512.000000"
 preserveAspectRatio="xMidYMid meet">

<g transform="translate(0.000000,512.000000) scale(0.100000,-0.100000)"
fill="#000000" stroke="none">
<path d="M2405 5000 c-681 -73 -1243 -415 -1615 -985 -132 -202 -248 -499
-295 -750 -23 -124 -25 -161 -25 -400 0 -284 9 -359 67 -575 219 -812 938
-1435 1783 -1543 975 -125 1902 423 2265 1336 26 65 45 121 42 123 -2 2 -32
-44 -66 -104 -108 -188 -253 -364 -413 -500 -47 -39 -88 -72 -92 -72 -3 0 -6
146 -6 325 l0 325 -90 0 -90 0 0 128 c0 286 -72 522 -218 718 -113 152 -173
201 -635 523 -81 56 -151 101 -155 99 -4 -2 -133 -91 -286 -198 -294 -205
-389 -285 -471 -394 l-50 -67 -6 388 c-7 437 -12 476 -88 639 -61 129 -144
237 -244 316 l-37 30 -81 -78 c-128 -126 -200 -248 -252 -432 -21 -76 -22 -89
-27 -972 l-5 -895 -41 70 c-139 235 -225 484 -254 737 -16 133 -8 419 15 541
92 502 392 948 826 1230 481 312 1087 391 1643 212 60 -19 111 -33 113 -31 6
6 -156 83 -255 121 -123 47 -288 91 -435 115 -139 23 -401 33 -522 20z m-636
-1005 c24 -42 71 -156 71 -170 0 -3 -70 -5 -156 -5 l-156 0 7 28 c11 47 82
185 116 226 l33 39 28 -34 c16 -19 41 -56 57 -84z m99 -452 l-3 -88 -182 -3
-183 -2 0 90 0 90 185 0 186 0 -3 -87z m1224 -269 c123 -86 248 -179 280 -206
133 -115 249 -312 292 -500 l6 -28 -800 0 c-782 0 -800 0 -800 19 0 24 55 182
82 236 40 79 121 186 192 252 52 50 507 383 523 383 1 0 102 -70 225 -156z
m-1224 -551 l2 -542 -92 -3 -93 -3 -5 -295 -5 -295 -87 84 -88 85 0 758 0 758
183 -2 182 -3 3 -542z m1822 -453 l0 -90 -820 0 -820 0 0 90 0 90 820 0 820 0
0 -90z m180 -550 l0 -270 -528 0 -527 0 -180 180 -180 180 -292 0 -293 0 0 90
0 90 1000 0 1000 0 0 -270z m-1405 -180 l90 -90 -343 0 -342 0 0 90 0 90 253
0 252 0 90 -90z m1000 -311 c-327 -107 -755 -109 -1099 -7 -56 16 -103 32
-105 34 -2 2 288 4 645 3 l649 -1 -90 -29z"/>
<path d="M3140 1720 l0 -90 90 0 90 0 0 90 0 90 -90 0 -90 0 0 -90z"/>
<path d="M3507 1723 l2 -88 90 -3 91 -3 0 91 0 90 -92 0 -93 0 2 -87z"/>
<path d="M4066 643 c-12 -12 -6 -33 9 -33 8 0 15 6 15 14 0 17 -14 28 -24 19z"/>
<path d="M562 628 c5 -15 28 -18 29 -3 0 6 -7 12 -17 13 -10 3 -15 -1 -12 -10z"/>
<path d="M2840 624 c0 -9 5 -14 12 -12 18 6 21 28 4 28 -9 0 -16 -7 -16 -16z"/>
<path d="M1040 620 c0 -5 9 -10 20 -10 18 0 20 -7 20 -83 0 -70 3 -87 19 -101
20 -19 52 -19 58 0 2 6 -7 10 -19 10 -22 -1 -23 2 -26 97 l-3 97 -34 0 c-19 0
-35 -4 -35 -10z"/>
<path d="M4460 596 c0 -34 -1 -35 -34 -29 -27 4 -36 1 -50 -18 -22 -32 -20
-91 3 -120 17 -21 23 -23 49 -13 22 8 33 9 41 1 8 -8 11 21 11 101 0 68 -4
112 -10 112 -5 0 -10 -15 -10 -34z m-16 -52 c25 -9 22 -90 -3 -104 -25 -13
-27 -13 -45 6 -18 18 -21 56 -6 85 11 20 27 23 54 13z"/>
<path d="M355 600 c-29 -32 -13 -64 45 -88 37 -16 50 -26 50 -42 0 -29 -42
-47 -76 -31 -34 15 -54 2 -23 -15 54 -30 119 -5 119 45 0 32 -23 56 -62 66
-68 17 -55 71 14 62 38 -5 52 6 22 17 -31 12 -71 6 -89 -14z"/>
<path d="M1580 515 c0 -63 4 -105 10 -105 6 0 10 17 10 39 0 36 2 39 36 44 48
8 64 23 64 63 0 41 -29 64 -82 64 l-38 0 0 -105z m84 69 c9 -8 16 -22 16 -29
0 -21 -29 -45 -56 -45 -22 0 -24 4 -24 45 0 41 2 45 24 45 14 0 32 -7 40 -16z"/>
<path d="M2600 610 c0 -5 16 -10 35 -10 l35 0 0 -95 c0 -57 4 -95 10 -95 6 0
10 38 10 95 l0 95 30 0 c17 0 30 5 30 10 0 6 -32 10 -75 10 -43 0 -75 -4 -75
-10z"/>
<path d="M3490 514 c0 -80 3 -105 13 -102 6 3 13 23 15 46 4 54 20 53 55 -3
16 -25 33 -45 38 -45 15 0 11 13 -16 53 l-26 37 27 23 c22 19 26 29 20 51 -7
30 -39 46 -92 46 l-34 0 0 -106z m94 64 c15 -25 -3 -52 -38 -56 -24 -3 -26 -1
-26 38 0 39 2 41 26 38 15 -2 32 -11 38 -20z"/>
<path d="M530 560 c0 -5 9 -10 20 -10 18 0 20 -7 20 -55 0 -48 -2 -55 -20 -55
-11 0 -20 -7 -20 -15 0 -12 13 -15 55 -15 42 0 55 3 55 15 0 8 -9 15 -20 15
-18 0 -20 7 -20 65 l0 65 -35 0 c-19 0 -35 -4 -35 -10z"/>
<path d="M680 490 c0 -97 18 -107 22 -13 2 55 6 68 21 71 15 3 17 -5 17 -67 0
-41 4 -71 10 -71 6 0 10 24 10 54 0 64 7 86 26 86 11 0 14 -16 14 -64 0 -36 5
-68 10 -71 6 -4 10 22 10 70 0 59 -3 77 -16 82 -8 3 -20 1 -26 -5 -9 -9 -15
-8 -26 0 -10 9 -18 9 -33 0 -11 -7 -19 -8 -19 -2 0 5 -4 10 -10 10 -6 0 -10
-33 -10 -80z"/>
<path d="M870 459 c0 -71 4 -108 10 -104 6 3 10 22 10 41 0 31 2 34 19 24 28
-14 38 -13 61 10 28 28 28 100 -1 125 -17 16 -25 17 -50 8 -16 -6 -29 -7 -29
-2 0 5 -4 9 -10 9 -6 0 -10 -44 -10 -111z m94 60 c19 -55 -22 -109 -59 -79
-18 15 -20 81 -3 98 20 20 52 10 62 -19z"/>
<path d="M1240 550 c-23 -23 -27 -86 -7 -113 18 -25 68 -31 92 -12 19 16 19
16 -14 11 -24 -4 -40 -1 -53 10 -33 30 -22 44 32 44 46 0 50 2 50 23 0 51 -63
74 -100 37z m64 -6 c33 -13 17 -34 -24 -34 -41 0 -49 7 -28 28 13 13 28 15 52
6z"/>
<path d="M1750 560 c0 -5 5 -10 10 -10 6 0 10 -25 10 -55 0 -30 -4 -55 -10
-55 -5 0 -10 -7 -10 -15 0 -10 11 -15 35 -15 24 0 35 5 35 15 0 8 -7 15 -16
15 -14 0 -16 7 -11 40 3 23 11 47 17 55 16 19 40 19 40 0 0 -8 5 -15 10 -15 6
0 10 11 10 25 0 30 -33 35 -62 8 -17 -15 -18 -15 -18 0 0 10 -8 17 -20 17 -11
0 -20 -4 -20 -10z"/>
<path d="M1931 561 c-11 -7 -4 -10 24 -13 53 -4 61 -33 12 -42 -44 -8 -61 -28
-53 -61 7 -29 44 -42 74 -26 14 7 23 8 27 1 14 -23 20 2 15 65 -4 42 -11 69
-20 75 -19 12 -61 12 -79 1z m69 -95 c0 -16 -7 -27 -20 -31 -25 -8 -40 1 -40
24 0 24 9 31 37 31 18 0 23 -6 23 -24z"/>
<path d="M2105 503 c12 -38 26 -76 30 -85 4 -11 -1 -23 -14 -35 -28 -24 -26
-35 3 -21 28 12 27 11 66 126 21 59 25 82 16 82 -8 0 -21 -28 -31 -65 -9 -36
-20 -63 -24 -60 -4 2 -16 31 -26 65 -10 33 -24 60 -31 60 -9 0 -7 -18 11 -67z"/>
<path d="M2281 544 c-34 -43 -24 -101 20 -124 23 -13 79 -4 79 12 0 6 -10 8
-25 4 -32 -8 -65 9 -65 34 0 17 7 20 50 20 43 0 50 3 50 20 0 27 -35 60 -64
60 -15 0 -33 -11 -45 -26z m79 -14 c10 -18 8 -20 -30 -20 -28 0 -40 4 -40 14
0 30 55 34 70 6z"/>
<path d="M2450 560 c0 -5 5 -10 10 -10 6 0 10 -25 10 -55 0 -30 -4 -55 -10
-55 -5 0 -10 -7 -10 -15 0 -10 10 -15 34 -15 40 0 58 19 27 27 -25 6 -28 41
-6 83 16 31 45 41 45 15 0 -8 5 -15 10 -15 6 0 10 11 10 25 0 30 -33 35 -62 8
-17 -15 -18 -15 -18 0 0 10 -8 17 -20 17 -11 0 -20 -4 -20 -10z"/>
<path d="M2800 560 c0 -5 11 -10 25 -10 24 0 25 -3 25 -55 0 -52 -1 -55 -25
-55 -16 0 -25 -6 -25 -15 0 -12 13 -15 55 -15 42 0 55 3 55 15 0 8 -9 15 -20
15 -18 0 -20 7 -20 65 l0 65 -35 0 c-19 0 -35 -4 -35 -10z"/>
<path d="M2952 493 c4 -94 21 -100 28 -11 4 47 9 63 20 63 11 0 16 -17 20 -70
6 -78 18 -70 22 15 2 43 7 56 21 58 15 3 17 -5 17 -67 0 -41 4 -71 10 -71 11
0 14 118 4 144 -7 18 -39 22 -49 6 -4 -6 -13 -5 -25 2 -14 9 -22 9 -34 -1 -11
-9 -16 -10 -16 -2 0 6 -5 11 -10 11 -7 0 -10 -29 -8 -77z"/>
<path d="M3160 550 c-23 -23 -27 -86 -7 -113 18 -25 68 -31 92 -12 19 16 19
16 -14 11 -24 -4 -40 -1 -53 10 -33 30 -22 44 32 44 46 0 50 2 50 23 0 51 -63
74 -100 37z m64 -6 c33 -13 17 -34 -24 -34 -41 0 -49 7 -28 28 13 13 28 15 52
6z"/>
<path d="M3680 550 c-29 -29 -27 -84 5 -115 28 -29 53 -32 81 -10 18 14 17 15
-17 9 -31 -5 -39 -2 -53 17 -9 13 -16 27 -16 31 0 5 25 8 56 8 47 0 55 3 50
16 -3 9 -6 19 -6 24 0 17 -32 40 -56 40 -13 0 -33 -9 -44 -20z m78 -22 c3 -15
-4 -18 -38 -18 -38 0 -40 1 -30 21 14 25 63 23 68 -3z"/>
<path d="M3830 490 c0 -97 18 -107 22 -13 2 55 6 68 21 71 15 3 17 -5 17 -67
0 -90 18 -93 22 -4 2 55 6 68 21 71 15 3 17 -5 17 -67 0 -41 4 -71 10 -71 6 0
10 32 10 75 0 59 -3 77 -16 82 -8 3 -20 1 -26 -5 -9 -9 -15 -8 -26 0 -10 9
-18 9 -33 0 -11 -7 -19 -8 -19 -2 0 5 -4 10 -10 10 -6 0 -10 -33 -10 -80z"/>
<path d="M4030 560 c0 -5 9 -10 20 -10 18 0 20 -7 20 -54 0 -49 -2 -55 -22
-58 -43 -6 -18 -23 37 -26 36 -2 55 1 55 8 0 7 -9 14 -20 17 -17 5 -20 14 -20
69 l0 64 -35 0 c-19 0 -35 -4 -35 -10z"/>
<path d="M4192 493 c3 -91 21 -101 26 -16 3 58 12 73 44 73 14 0 18 -12 20
-67 2 -39 7 -67 13 -66 15 4 18 122 4 139 -14 17 -51 18 -68 2 -11 -10 -14
-10 -18 0 -3 6 -9 12 -14 12 -6 0 -9 -33 -7 -77z"/>
<path d="M4562 554 c-17 -12 -22 -25 -22 -60 0 -65 40 -99 94 -78 28 11 17 26
-13 19 -30 -6 -61 14 -61 41 0 10 13 14 50 14 46 0 50 2 50 23 0 49 -55 72
-98 41z m66 -16 c21 -21 13 -28 -28 -28 -22 0 -40 4 -40 8 0 14 23 32 40 32 9
0 21 -5 28 -12z"/>
<path d="M4720 560 c0 -5 5 -10 10 -10 6 0 10 -25 10 -55 0 -30 -4 -55 -10
-55 -5 0 -10 -7 -10 -15 0 -10 11 -15 35 -15 24 0 35 5 35 15 0 8 -7 15 -15
15 -20 0 -20 59 1 88 17 25 44 29 44 7 0 -8 5 -15 10 -15 6 0 10 11 10 25 0
30 -33 35 -62 8 -17 -15 -18 -15 -18 0 0 10 -8 17 -20 17 -11 0 -20 -4 -20
-10z"/>
<path d="M190 250 l0 -40 2370 0 2370 0 0 40 0 40 -2370 0 -2370 0 0 -40z"/>
</g>
</svg>
