<?xml version="1.0" standalone="no"?>
<!DOCTYPE svg PUBLIC "-//W3C//DTD SVG 20010904//EN"
 "http://www.w3.org/TR/2001/REC-SVG-20010904/DTD/svg10.dtd">
<svg version="1.0" xmlns="http://www.w3.org/2000/svg"
 width="512.000000pt" height="512.000000pt" viewBox="0 0 512.000000 512.000000"
 preserveAspectRatio="xMidYMid meet">

<g transform="translate(0.000000,512.000000) scale(0.100000,-0.100000)"
fill="#000000" stroke="none">
<path d="M2365 4995 c-421 -48 -775 -172 -1102 -387 -153 -101 -230 -164 -371
-302 -381 -372 -607 -805 -709 -1356 -14 -77 -17 -151 -17 -390 -1 -307 8
-386 60 -595 89 -352 258 -686 490 -965 118 -143 169 -195 306 -310 367 -309
758 -481 1278 -562 126 -19 496 -16 635 6 471 74 855 242 1220 533 309 247
587 635 734 1026 46 120 47 124 26 107 -8 -7 -15 -16 -15 -21 0 -14 -108 -196
-162 -272 -108 -153 -274 -330 -408 -436 l-55 -44 -3 372 -2 371 -104 0 -103
0 -6 188 c-4 103 -13 219 -21 259 -55 270 -173 491 -361 678 -82 82 -160 142
-432 332 l-332 231 -312 -219 c-171 -121 -324 -229 -338 -240 -56 -43 -185
-177 -234 -244 l-52 -69 -6 464 c-5 435 -7 470 -27 540 -57 200 -131 328 -268
468 -56 56 -108 102 -114 102 -20 0 -135 -105 -188 -173 -99 -125 -159 -248
-205 -421 -21 -80 -21 -97 -27 -1096 l-5 -1015 -41 66 c-141 222 -245 509
-291 797 -25 165 -22 469 7 637 81 470 292 866 636 1195 521 498 1246 700
1971 550 91 -19 341 -91 364 -106 5 -3 9 -2 9 1 0 13 -269 135 -385 175 -340
117 -713 162 -1040 125z m-761 -1068 c62 -85 145 -265 129 -281 -10 -9 -353
-7 -353 2 0 61 146 333 178 332 4 0 24 -24 46 -53z m164 -594 l3 -103 -211 0
-210 0 0 98 c0 54 3 102 7 106 4 3 97 5 207 4 l201 -3 3 -102z m1409 -315
c354 -247 454 -349 558 -563 52 -107 100 -249 89 -267 -3 -4 -414 -8 -915 -8
-860 0 -909 1 -909 18 0 68 80 262 158 382 89 138 194 233 487 438 143 100
265 180 272 177 6 -2 123 -82 260 -177z m-1409 -625 l2 -623 -105 0 -105 0 -2
-342 -3 -343 -102 99 -103 100 0 868 0 868 208 -2 207 -3 3 -622z m2082 -518
l0 -105 -940 0 -940 0 0 98 c0 54 3 102 7 105 3 4 426 7 940 7 l933 0 0 -105z
m208 -627 l-3 -313 -600 -3 -600 -2 -210 210 -210 210 -332 0 -333 0 0 105 0
105 1145 0 1145 0 -2 -312z m-1605 -207 c53 -55 97 -102 97 -105 0 -4 -175 -6
-390 -6 l-390 0 0 105 0 105 293 0 292 0 98 -99z m1177 -347 c-95 -31 -251
-68 -360 -85 -129 -21 -538 -18 -660 4 -124 22 -281 61 -350 86 l-55 20 750 0
750 0 -75 -25z"/>
<path d="M3224 1337 c-3 -8 -4 -54 -2 -103 l3 -89 103 -3 102 -3 0 106 0 105
-100 0 c-75 0 -102 -3 -106 -13z"/>
<path d="M3640 1245 l0 -105 105 0 105 0 0 105 0 105 -105 0 -105 0 0 -105z"/>
</g>
</svg>
